<?xml version="1.0" standalone="no"?><!DOCTYPE svg PUBLIC "-//W3C//DTD SVG 1.1//EN" "http://www.w3.org/Graphics/SVG/1.1/DTD/svg11.dtd"><svg t="1604321638515" class="icon" viewBox="0 0 1024 1024" version="1.1" xmlns="http://www.w3.org/2000/svg" p-id="853" xmlns:xlink="http://www.w3.org/1999/xlink" width="500" height="500"><defs><style type="text/css"></style></defs><path d="M896 628.693333l-34.133333-28.16a85.589333 85.589333 0 0 1-30.72-70.144V512v-18.346667c-1.365333-26.965333 10.026667-52.906667 30.72-70.144l34.133333-28.202666c16.213333-13.184 20.522667-36.138667 10.24-54.314667l-49.493333-85.504a42.624 42.624 0 0 0-51.626667-18.346667l-42.666667 15.36c-25.173333 9.386667-53.333333 6.4-75.946666-8.106666a233.685333 233.685333 0 0 0-31.573334-18.389334 85.504 85.504 0 0 1-45.226666-61.994666l-7.253334-42.752a42.666667 42.666667 0 0 0-42.666666-35.925334h-98.133334a42.666667 42.666667 0 0 0-42.666666 35.925334l-7.253334 42.752a85.504 85.504 0 0 1-43.52 61.994666 233.685333 233.685333 0 0 0-31.573333 18.346667c-22.613333 14.549333-50.773333 17.578667-75.946667 8.106667l-42.666666-15.36a42.624 42.624 0 0 0-50.773334 18.389333L117.76 340.992c-10.282667 18.176-5.973333 41.130667 10.24 54.314667l34.133333 28.16c20.693333 17.237333 32.085333 43.221333 30.72 70.144v36.736c1.365333 26.965333-10.026667 52.906667-30.72 70.144l-34.133333 28.202666c-16.213333 13.184-20.522667 36.138667-10.24 54.314667l49.493333 85.504c10.496 17.834667 32.256 25.6 51.626667 18.346667l42.666667-15.36c25.173333-9.386667 53.333333-6.4 75.946666 8.106666 10.026667 6.954667 20.608 13.098667 31.573334 18.389334 24.021333 12.373333 40.789333 35.328 45.226666 61.994666l7.253334 42.752a42.666667 42.666667 0 0 0 42.666666 35.925334h98.133334a42.666667 42.666667 0 0 0 42.666666-35.925334l7.253334-42.752a85.504 85.504 0 0 1 45.226666-61.994666c10.965333-5.290667 21.546667-11.434667 31.573334-18.346667 22.613333-14.549333 50.773333-17.578667 75.946666-8.106667l42.666667 15.36a42.666667 42.666667 0 0 0 49.066667-18.389333l49.493333-85.504c10.282667-18.176 5.973333-41.130667-10.24-54.314667z m-384 11.562667c-70.698667 0-128-57.429333-128-128.256a128.128 128.128 0 0 1 128-128.256c70.698667 0 128 57.429333 128 128.256 0 34.005333-13.482667 66.645333-37.504 90.709333a127.872 127.872 0 0 1-90.496 37.546667z" fill="#E56D9B" p-id="854"></path></svg>