<?xml version="1.0" standalone="no"?><!DOCTYPE svg PUBLIC "-//W3C//DTD SVG 1.1//EN" "http://www.w3.org/Graphics/SVG/1.1/DTD/svg11.dtd"><svg t="1604321717016" class="icon" viewBox="0 0 1024 1024" version="1.1" xmlns="http://www.w3.org/2000/svg" p-id="8661" xmlns:xlink="http://www.w3.org/1999/xlink" width="500" height="500"><defs><style type="text/css"></style></defs><path d="M813.408 353.168a32 32 0 0 1 32-32 94.752 94.752 0 0 1 94.752 94.752v333.328a94.752 94.752 0 0 1-94.752 94.752H331.68a94.752 94.752 0 0 1-94.736-94.752 32 32 0 0 1 64 0c0 16.992 13.76 30.752 30.736 30.752h513.728c16.992 0 30.752-13.76 30.752-30.752V415.92c0-16.976-13.76-30.752-30.752-30.752a32 32 0 0 1-32-32z" p-id="8662" fill="#E56D9B"></path><path d="M84 256a96 96 0 0 1 96-96H696a96 96 0 0 1 96 96v352a96 96 0 0 1-96 96H180a96 96 0 0 1-96-96V256z m96-32a32 32 0 0 0-32 32v352a32 32 0 0 0 32 32H696a32 32 0 0 0 32-32V256a32 32 0 0 0-32-32H180z" p-id="8663" fill="#E56D9B"></path><path d="M95.76 293.888a32 32 0 0 1 32-32h537.264a32 32 0 0 1 0 64H127.76a32 32 0 0 1-32-32z m137.264 103.92a32 32 0 0 1 32-32h480.384a32 32 0 0 1 0 64H265.024a32 32 0 0 1-32-32zM514.048 485.52a32 32 0 0 1 28.528-17.52h117.424a32 32 0 0 1 28.528 46.48l-38.56 76A32 32 0 0 1 621.408 608H504a32 32 0 0 1-28.528-46.48l38.56-76z m48.176 46.48l-6.08 12h45.632l6.08-12H562.24z" p-id="8664" fill="#E56D9B"></path></svg>